<svg xmlns="http://www.w3.org/2000/svg" version="1.1" xmlns:xlink="http://www.w3.org/1999/xlink" width="512" height="512"><svg width="512" height="512" viewBox="0 0 512 512" fill="none" xmlns="http://www.w3.org/2000/svg">
<path d="M11 298C11 276.366 18.0474 257.437 32.1422 241.211C46.0539 224.817 65.8232 212.225 91.45 203.437C116.894 194.479 146.456 190 180.137 190C213.818 190 243.381 194.479 268.825 203.437C294.268 212.225 314.038 224.732 328.132 240.958C342.044 257.183 349 276.197 349 298C349 319.803 342.044 338.817 328.132 355.042C314.038 371.268 294.268 383.859 268.825 392.817C243.381 401.606 213.818 406 180.137 406C146.456 406 116.894 401.606 91.45 392.817C65.8232 383.859 46.0539 371.268 32.1422 355.042C18.0474 338.648 11 319.634 11 298ZM51.6369 298C51.6369 311.352 56.7623 323.183 67.013 333.493C77.0807 343.634 91.8161 351.577 111.219 357.324C130.439 363.07 153.412 365.944 180.137 365.944C206.862 365.944 229.927 363.07 249.33 357.324C268.55 351.577 283.194 343.634 293.262 333.493C303.329 323.183 308.363 311.352 308.363 298C308.363 284.648 303.329 272.901 293.262 262.761C283.194 252.451 268.55 244.423 249.33 238.676C229.927 232.93 206.862 230.056 180.137 230.056C153.412 230.056 130.439 232.93 111.219 238.676C91.8161 244.423 77.0807 252.451 67.013 262.761C56.7623 272.901 51.6369 284.648 51.6369 298Z" fill="#32CD32"></path>
<path d="M457.033 296.498C457.033 302.435 458.679 306.626 461.97 309.071C465.056 311.69 470.405 313 478.016 313C485.628 313 491.08 311.69 494.371 309.071C497.457 306.626 499 302.435 499 296.498V119.955C499 114.018 497.457 109.739 494.371 107.12C491.08 104.675 485.628 103.453 478.016 103.453C470.405 103.453 465.056 104.675 461.97 107.12C458.679 109.739 457.033 114.018 457.033 119.955V190.415H192.271L240.101 125.193C242.158 122.225 243.186 119.518 243.186 117.073C243.186 111.486 238.969 106.683 230.535 102.667C225.597 100.222 220.866 99 216.34 99C209.345 99 203.997 101.707 200.294 107.12L128.703 205.869C126.234 209.361 125 212.854 125 216.346C125 220.188 126.543 223.331 129.629 225.776C132.509 228.395 136.623 229.705 141.972 229.705L457.033 229.705V296.498Z" fill="#006600"></path>
</svg><style>@media (prefers-color-scheme: light) { :root { filter: none; } }
@media (prefers-color-scheme: dark) { :root { filter: none; } }
</style></svg>