<svg width="119" height="62" viewBox="0 0 119 62" fill="none" xmlns="http://www.w3.org/2000/svg">
<path d="M13.3438 5.4707C13.9089 5.4707 14.2962 5.53451 14.5059 5.66211C14.7155 5.78971 14.8203 6.01302 14.8203 6.33203V11.0352C14.8203 11.3451 14.679 11.5684 14.3965 11.7051C14.123 11.8327 13.6628 11.8965 13.0156 11.8965C12.5872 11.8965 12.2546 11.8691 12.0176 11.8145C11.7897 11.7507 11.6302 11.6595 11.5391 11.541C11.4479 11.4225 11.4023 11.2539 11.4023 11.0352C11.4023 10.2513 11.1654 9.64518 10.6914 9.2168C10.2174 8.78841 9.4974 8.57422 8.53125 8.57422C7.26432 8.57422 6.30273 9.02995 5.64648 9.94141C4.99023 10.8529 4.66211 12.1654 4.66211 13.8789C4.66211 15.5742 5.00846 16.8867 5.70117 17.8164C6.40299 18.737 7.39193 19.1973 8.66797 19.1973C9.67969 19.1973 10.6367 19.0605 11.5391 18.7871V16.5039H8.90039C8.68164 16.5039 8.51302 16.4674 8.39453 16.3945C8.27604 16.3216 8.1849 16.1849 8.12109 15.9844C8.06641 15.7839 8.03906 15.4922 8.03906 15.1094C8.03906 14.7266 8.06641 14.4349 8.12109 14.2344C8.1849 14.0339 8.27604 13.8971 8.39453 13.8242C8.51302 13.7422 8.68164 13.7012 8.90039 13.7012H15.3809C15.5996 13.7012 15.7682 13.7422 15.8867 13.8242C16.0052 13.8971 16.0918 14.0339 16.1465 14.2344C16.2103 14.4349 16.2422 14.7266 16.2422 15.1094C16.2422 15.4922 16.2103 15.7839 16.1465 15.9844C16.0918 16.1849 16.0052 16.3216 15.8867 16.3945C15.7682 16.4674 15.5996 16.5039 15.3809 16.5039H14.957V20.0449C14.957 20.2637 14.9115 20.4551 14.8203 20.6191C14.7383 20.7832 14.6198 20.9062 14.4648 20.9883C13.6172 21.4258 12.6875 21.7539 11.6758 21.9727C10.6641 22.1914 9.61589 22.3008 8.53125 22.3008C7.03646 22.3008 5.7194 21.959 4.58008 21.2754C3.44076 20.5918 2.55664 19.6165 1.92773 18.3496C1.30794 17.0736 0.998047 15.5833 0.998047 13.8789C0.998047 12.1836 1.30339 10.7025 1.91406 9.43555C2.52474 8.15951 3.36784 7.17969 4.44336 6.49609C5.52799 5.8125 6.75391 5.4707 8.12109 5.4707C9.72526 5.4707 10.9102 6.00846 11.6758 7.08398V6.33203C11.6758 6.02214 11.8079 5.80339 12.0723 5.67578C12.3366 5.53906 12.7604 5.4707 13.3438 5.4707ZM25.0332 9.06641C27.0384 9.06641 28.4876 9.49935 29.3809 10.3652C30.2741 11.2311 30.7207 12.4707 30.7207 14.084V18.0352C30.7207 18.3997 30.7982 18.6868 30.9531 18.8965C31.1081 19.097 31.3314 19.1973 31.623 19.1973H32.0469C32.2656 19.1973 32.4342 19.2383 32.5527 19.3203C32.6712 19.3932 32.7578 19.5299 32.8125 19.7305C32.8763 19.931 32.9082 20.2227 32.9082 20.6055C32.9082 20.9883 32.8763 21.2799 32.8125 21.4805C32.7578 21.681 32.6712 21.8177 32.5527 21.8906C32.4342 21.9635 32.2656 22 32.0469 22H30.5156C29.9505 22 29.4492 21.8861 29.0117 21.6582C28.5833 21.4212 28.2552 21.0521 28.0273 20.5508C27.3073 21.1068 26.5462 21.5397 25.7441 21.8496C24.9421 22.1504 24.1172 22.3008 23.2695 22.3008C22.2396 22.3008 21.3509 22.1276 20.6035 21.7812C19.8561 21.4258 19.2819 20.9245 18.8809 20.2773C18.4889 19.6211 18.293 18.8509 18.293 17.9668C18.293 16.6908 18.7441 15.7018 19.6465 15C20.5488 14.2982 21.8112 13.9473 23.4336 13.9473C24.6458 13.9473 25.9355 14.084 27.3027 14.3574V13.9609C27.3027 13.3503 27.1113 12.8991 26.7285 12.6074C26.3457 12.3158 25.6712 12.1699 24.7051 12.1699C24.1673 12.1699 23.5658 12.2383 22.9004 12.375C22.2441 12.5026 21.5924 12.6758 20.9453 12.8945C20.7904 12.9401 20.6582 12.9629 20.5488 12.9629C20.321 12.9629 20.1159 12.8809 19.9336 12.7168C19.7604 12.5436 19.6009 12.2565 19.4551 11.8555C19.3184 11.4544 19.25 11.1263 19.25 10.8711C19.25 10.4062 19.4596 10.0964 19.8789 9.94141C20.6901 9.64974 21.5514 9.43099 22.4629 9.28516C23.3743 9.13932 24.2311 9.06641 25.0332 9.06641ZM23.7754 16.7637C23.1374 16.7637 22.6497 16.8776 22.3125 17.1055C21.9844 17.3333 21.8203 17.666 21.8203 18.1035C21.8203 18.5319 21.9798 18.86 22.2988 19.0879C22.627 19.3066 23.0964 19.416 23.707 19.416C24.3359 19.416 24.9557 19.293 25.5664 19.0469C26.1862 18.7917 26.765 18.4453 27.3027 18.0078V17.1328C26.0996 16.8867 24.9238 16.7637 23.7754 16.7637ZM46.252 9.06641C47.0267 9.06641 47.7559 9.32161 48.4395 9.83203C48.8405 10.1237 49.041 10.5065 49.041 10.9805C49.041 11.2812 48.959 11.6367 48.7949 12.0469C48.6309 12.457 48.444 12.7669 48.2344 12.9766C48.0339 13.1862 47.8197 13.291 47.5918 13.291C47.4642 13.291 47.3275 13.2546 47.1816 13.1816C46.6712 12.8991 46.1426 12.7578 45.5957 12.7578C44.8939 12.7578 44.2376 12.9811 43.627 13.4277C43.0163 13.8743 42.5241 14.4896 42.1504 15.2734C41.7858 16.0573 41.6035 16.9323 41.6035 17.8984V19.1973H45.5273C45.7461 19.1973 45.9147 19.2383 46.0332 19.3203C46.1517 19.3932 46.2383 19.5299 46.293 19.7305C46.3568 19.931 46.3887 20.2227 46.3887 20.6055C46.3887 20.9883 46.3568 21.2799 46.293 21.4805C46.2383 21.681 46.1517 21.8177 46.0332 21.8906C45.9147 21.9635 45.7461 22 45.5273 22H36.1758C35.957 22 35.7884 21.9635 35.6699 21.8906C35.5514 21.8177 35.4603 21.681 35.3965 21.4805C35.3418 21.2799 35.3145 20.9883 35.3145 20.6055C35.3145 20.2227 35.3418 19.931 35.3965 19.7305C35.4603 19.5299 35.5514 19.3932 35.6699 19.3203C35.7884 19.2383 35.957 19.1973 36.1758 19.1973H38.1855V12.1699H36.5859C36.3672 12.1699 36.1986 12.1335 36.0801 12.0605C35.9616 11.9876 35.8704 11.8509 35.8066 11.6504C35.752 11.4499 35.7246 11.1582 35.7246 10.7754C35.7246 10.3926 35.752 10.1009 35.8066 9.90039C35.8704 9.69987 35.9616 9.56315 36.0801 9.49023C36.1986 9.4082 36.3672 9.36719 36.5859 9.36719H40.332C40.6419 9.36719 40.8607 9.43555 40.9883 9.57227C41.125 9.69987 41.1934 9.91862 41.1934 10.2285V13.1953C41.877 11.8737 42.6608 10.8574 43.5449 10.1465C44.4382 9.42643 45.3405 9.06641 46.252 9.06641ZM60.8945 3.99414C62.2799 3.99414 63.6654 4.25391 65.0508 4.77344C65.2786 4.85547 65.4473 4.97396 65.5566 5.12891C65.6751 5.27474 65.7344 5.47526 65.7344 5.73047C65.7344 5.96745 65.6888 6.25 65.5977 6.57812C65.4883 6.97917 65.3516 7.26628 65.1875 7.43945C65.0326 7.61263 64.8457 7.69922 64.627 7.69922C64.5176 7.69922 64.3854 7.67643 64.2305 7.63086C63.0729 7.27539 62.0612 7.09766 61.1953 7.09766C60.0195 7.09766 59.4316 7.85417 59.4316 9.36719V10.1875H63.6836C64.0026 10.1875 64.2259 10.2923 64.3535 10.502C64.4811 10.7116 64.5449 11.099 64.5449 11.6641C64.5449 12.2292 64.4811 12.6165 64.3535 12.8262C64.2259 13.0267 64.0026 13.127 63.6836 13.127H59.4316V19.1973H63.2734C63.4922 19.1973 63.6608 19.2383 63.7793 19.3203C63.8978 19.3932 63.9844 19.5299 64.0391 19.7305C64.1029 19.931 64.1348 20.2227 64.1348 20.6055C64.1348 20.9883 64.1029 21.2799 64.0391 21.4805C63.9844 21.681 63.8978 21.8177 63.7793 21.8906C63.6608 21.9635 63.4922 22 63.2734 22H53.5117C53.293 22 53.1243 21.9635 53.0059 21.8906C52.8874 21.8177 52.7962 21.681 52.7324 21.4805C52.6777 21.2799 52.6504 20.9883 52.6504 20.6055C52.6504 20.2227 52.6777 19.931 52.7324 19.7305C52.7962 19.5299 52.8874 19.3932 53.0059 19.3203C53.1243 19.2383 53.293 19.1973 53.5117 19.1973H56.0137V13.127H53.5117C53.1927 13.127 52.9694 13.0267 52.8418 12.8262C52.7142 12.6165 52.6504 12.2292 52.6504 11.6641C52.6504 11.099 52.7142 10.7116 52.8418 10.502C52.9694 10.2923 53.1927 10.1875 53.5117 10.1875H56.0137V9.18945C56.0137 7.49414 56.4284 6.20443 57.2578 5.32031C58.0964 4.4362 59.3086 3.99414 60.8945 3.99414ZM76.5898 9.36719C76.8997 9.36719 77.1185 9.43555 77.2461 9.57227C77.3828 9.69987 77.4512 9.91862 77.4512 10.2285V19.1973H81.293C81.5117 19.1973 81.6803 19.2383 81.7988 19.3203C81.9173 19.3932 82.0039 19.5299 82.0586 19.7305C82.1224 19.931 82.1543 20.2227 82.1543 20.6055C82.1543 20.9883 82.1224 21.2799 82.0586 21.4805C82.0039 21.681 81.9173 21.8177 81.7988 21.8906C81.6803 21.9635 81.5117 22 81.293 22H70.3008C70.082 22 69.9134 21.9635 69.7949 21.8906C69.6764 21.8177 69.5853 21.681 69.5215 21.4805C69.4668 21.2799 69.4395 20.9883 69.4395 20.6055C69.4395 20.2227 69.4668 19.931 69.5215 19.7305C69.5853 19.5299 69.6764 19.3932 69.7949 19.3203C69.9134 19.2383 70.082 19.1973 70.3008 19.1973H74.0332V12.1699H71.1211C70.9023 12.1699 70.7337 12.1335 70.6152 12.0605C70.4967 11.9876 70.4056 11.8509 70.3418 11.6504C70.2871 11.4499 70.2598 11.1582 70.2598 10.7754C70.2598 10.3926 70.2871 10.1009 70.3418 9.90039C70.4056 9.69987 70.4967 9.56315 70.6152 9.49023C70.7337 9.4082 70.9023 9.36719 71.1211 9.36719H76.5898ZM75.7012 3.36523C76.3483 3.36523 76.7995 3.43359 77.0547 3.57031C77.319 3.69792 77.4512 3.91667 77.4512 4.22656V6.46875C77.4512 6.77865 77.3281 7.00195 77.082 7.13867C76.8451 7.26628 76.4076 7.33008 75.7695 7.33008C75.1315 7.33008 74.6803 7.26628 74.416 7.13867C74.1608 7.00195 74.0332 6.77865 74.0332 6.46875V4.22656C74.0332 3.90755 74.1517 3.68424 74.3887 3.55664C74.6257 3.42904 75.0632 3.36523 75.7012 3.36523ZM96.332 9.06641C96.9154 9.06641 97.3301 9.13477 97.5762 9.27148C97.8223 9.39909 97.9453 9.61784 97.9453 9.92773V12.8125C97.9453 13.1224 97.8451 13.3457 97.6445 13.4824C97.4531 13.61 97.1341 13.6738 96.6875 13.6738C96.2044 13.6738 95.8717 13.5781 95.6895 13.3867C95.1517 12.8125 94.5365 12.4069 93.8438 12.1699C93.151 11.9238 92.349 11.8008 91.4375 11.8008C90.8997 11.8008 90.4759 11.8965 90.166 12.0879C89.8652 12.2793 89.7148 12.5345 89.7148 12.8535C89.7148 13.2363 90.0521 13.5098 90.7266 13.6738C91.082 13.765 91.6882 13.8516 92.5449 13.9336C93.3926 14.0339 94.0944 14.1341 94.6504 14.2344C95.2155 14.3346 95.7487 14.485 96.25 14.6855C96.9792 14.9863 97.5488 15.4056 97.959 15.9434C98.3691 16.4811 98.5742 17.1921 98.5742 18.0762C98.5742 18.9421 98.36 19.694 97.9316 20.332C97.5124 20.9609 96.8926 21.4486 96.0723 21.7949C95.2611 22.1322 94.2812 22.3008 93.1328 22.3008C91.8659 22.3008 90.6901 21.9772 89.6055 21.3301V21.4395C89.6055 21.7493 89.4733 21.9681 89.209 22.0957C88.9447 22.2324 88.5208 22.3008 87.9375 22.3008C87.3542 22.3008 86.9395 22.2324 86.6934 22.0957C86.4473 21.9681 86.3242 21.7493 86.3242 21.4395V18.3906C86.3242 18.0898 86.429 17.8711 86.6387 17.7344C86.8574 17.5977 87.1901 17.5293 87.6367 17.5293C88.1927 17.5293 88.571 17.6569 88.7715 17.9121C89.2272 18.4863 89.8105 18.9056 90.5215 19.1699C91.2324 19.4342 92.0117 19.5664 92.8594 19.5664C94.3177 19.5664 95.0469 19.1882 95.0469 18.4316C95.0469 18.2038 94.9421 18.0215 94.7324 17.8848C94.5319 17.748 94.2311 17.6341 93.8301 17.543C93.6022 17.4974 93.0736 17.4154 92.2441 17.2969C91.3236 17.1875 90.5306 17.0645 89.8652 16.9277C89.209 16.7819 88.612 16.5586 88.0742 16.2578C86.8164 15.5651 86.1875 14.4714 86.1875 12.9766C86.1875 12.1836 86.4017 11.4909 86.8301 10.8984C87.2585 10.306 87.8464 9.85482 88.5938 9.54492C89.3503 9.22591 90.1979 9.06641 91.1367 9.06641C92.513 9.06641 93.7344 9.39909 94.8008 10.0645V9.92773C94.8008 9.61784 94.9102 9.39909 95.1289 9.27148C95.3568 9.13477 95.7578 9.06641 96.332 9.06641ZM106.121 4.0625C106.431 4.0625 106.65 4.13086 106.777 4.26758C106.914 4.39518 106.982 4.61393 106.982 4.92383V11.5684C108.076 9.90039 109.398 9.06641 110.947 9.06641C111.777 9.06641 112.501 9.2487 113.121 9.61328C113.75 9.97786 114.233 10.4974 114.57 11.1719C114.908 11.8372 115.076 12.6211 115.076 13.5234V19.1973H116.129C116.348 19.1973 116.516 19.2383 116.635 19.3203C116.753 19.3932 116.84 19.5299 116.895 19.7305C116.958 19.931 116.99 20.2227 116.99 20.6055C116.99 20.9883 116.958 21.2799 116.895 21.4805C116.84 21.681 116.753 21.8177 116.635 21.8906C116.516 21.9635 116.348 22 116.129 22H111.016C110.797 22 110.628 21.9635 110.51 21.8906C110.391 21.8177 110.3 21.681 110.236 21.4805C110.182 21.2799 110.154 20.9883 110.154 20.6055C110.154 20.2227 110.182 19.931 110.236 19.7305C110.3 19.5299 110.391 19.3932 110.51 19.3203C110.628 19.2383 110.797 19.1973 111.016 19.1973H111.658V14.3301C111.658 13.6191 111.535 13.0814 111.289 12.7168C111.043 12.3522 110.633 12.1699 110.059 12.1699C109.53 12.1699 109.029 12.3932 108.555 12.8398C108.081 13.2773 107.698 13.8652 107.406 14.6035C107.124 15.3418 106.982 16.1302 106.982 16.9688V19.1973H107.625C107.844 19.1973 108.012 19.2383 108.131 19.3203C108.249 19.3932 108.336 19.5299 108.391 19.7305C108.454 19.931 108.486 20.2227 108.486 20.6055C108.486 20.9883 108.454 21.2799 108.391 21.4805C108.336 21.681 108.249 21.8177 108.131 21.8906C108.012 21.9635 107.844 22 107.625 22H102.512C102.293 22 102.124 21.9635 102.006 21.8906C101.887 21.8177 101.796 21.681 101.732 21.4805C101.678 21.2799 101.65 20.9883 101.65 20.6055C101.65 20.2227 101.678 19.931 101.732 19.7305C101.796 19.5299 101.887 19.3932 102.006 19.3203C102.124 19.2383 102.293 19.1973 102.512 19.1973H103.564V6.86523H102.238C102.02 6.86523 101.851 6.82878 101.732 6.75586C101.614 6.68294 101.523 6.54622 101.459 6.3457C101.404 6.14518 101.377 5.85352 101.377 5.4707C101.377 5.08789 101.404 4.79622 101.459 4.5957C101.523 4.39518 101.614 4.25846 101.732 4.18555C101.851 4.10352 102.02 4.0625 102.238 4.0625H106.121Z" fill="white"/>
<path d="M9.12109 36.7715C10.7161 36.7715 12.0879 37.0859 13.2363 37.7148C14.3848 38.3438 15.2643 39.2689 15.875 40.4902C16.4857 41.7025 16.791 43.1654 16.791 44.8789C16.791 46.5924 16.4857 48.0599 15.875 49.2812C15.2643 50.4935 14.3848 51.4186 13.2363 52.0566C12.0879 52.6855 10.7161 53 9.12109 53H2.68164C2.46289 53 2.29427 52.9635 2.17578 52.8906C2.05729 52.8177 1.96615 52.681 1.90234 52.4805C1.84766 52.2799 1.82031 51.9883 1.82031 51.6055C1.82031 51.2227 1.84766 50.931 1.90234 50.7305C1.96615 50.5299 2.05729 50.3932 2.17578 50.3203C2.29427 50.2383 2.46289 50.1973 2.68164 50.1973H4.00781V39.5742H2.68164C2.46289 39.5742 2.29427 39.5378 2.17578 39.4648C2.05729 39.3919 1.96615 39.2552 1.90234 39.0547C1.84766 38.8542 1.82031 38.5625 1.82031 38.1797C1.82031 37.7969 1.84766 37.5052 1.90234 37.3047C1.96615 37.1042 2.05729 36.9674 2.17578 36.8945C2.29427 36.8125 2.46289 36.7715 2.68164 36.7715H9.12109ZM7.42578 50.0605H8.84766C10.2604 50.0605 11.3268 49.623 12.0469 48.748C12.7669 47.8639 13.127 46.5742 13.127 44.8789C13.127 43.1836 12.7669 41.8984 12.0469 41.0234C11.3268 40.1484 10.2604 39.7109 8.84766 39.7109H7.42578V50.0605ZM27.2227 40.3672C27.5326 40.3672 27.7513 40.4355 27.8789 40.5723C28.0156 40.6999 28.084 40.9186 28.084 41.2285V50.1973H31.9258C32.1445 50.1973 32.3132 50.2383 32.4316 50.3203C32.5501 50.3932 32.6367 50.5299 32.6914 50.7305C32.7552 50.931 32.7871 51.2227 32.7871 51.6055C32.7871 51.9883 32.7552 52.2799 32.6914 52.4805C32.6367 52.681 32.5501 52.8177 32.4316 52.8906C32.3132 52.9635 32.1445 53 31.9258 53H20.9336C20.7148 53 20.5462 52.9635 20.4277 52.8906C20.3092 52.8177 20.2181 52.681 20.1543 52.4805C20.0996 52.2799 20.0723 51.9883 20.0723 51.6055C20.0723 51.2227 20.0996 50.931 20.1543 50.7305C20.2181 50.5299 20.3092 50.3932 20.4277 50.3203C20.5462 50.2383 20.7148 50.1973 20.9336 50.1973H24.666V43.1699H21.7539C21.5352 43.1699 21.3665 43.1335 21.248 43.0605C21.1296 42.9876 21.0384 42.8509 20.9746 42.6504C20.9199 42.4499 20.8926 42.1582 20.8926 41.7754C20.8926 41.3926 20.9199 41.1009 20.9746 40.9004C21.0384 40.6999 21.1296 40.5632 21.248 40.4902C21.3665 40.4082 21.5352 40.3672 21.7539 40.3672H27.2227ZM26.334 34.3652C26.9811 34.3652 27.4323 34.4336 27.6875 34.5703C27.9518 34.6979 28.084 34.9167 28.084 35.2266V37.4688C28.084 37.7786 27.9609 38.002 27.7148 38.1387C27.4779 38.2663 27.0404 38.3301 26.4023 38.3301C25.7643 38.3301 25.3132 38.2663 25.0488 38.1387C24.7936 38.002 24.666 37.7786 24.666 37.4688V35.2266C24.666 34.9076 24.7845 34.6842 25.0215 34.5566C25.2585 34.429 25.696 34.3652 26.334 34.3652ZM41.7969 40.0664C42.6628 40.0664 43.4512 40.2487 44.1621 40.6133C44.873 40.9779 45.4655 41.502 45.9395 42.1855V41.2285C45.9395 40.9186 46.0033 40.6999 46.1309 40.5723C46.2676 40.4355 46.4909 40.3672 46.8008 40.3672H50C50.2188 40.3672 50.3874 40.4082 50.5059 40.4902C50.6243 40.5632 50.7109 40.6999 50.7656 40.9004C50.8294 41.1009 50.8613 41.3926 50.8613 41.7754C50.8613 42.1582 50.8294 42.4499 50.7656 42.6504C50.7109 42.8509 50.6243 42.9876 50.5059 43.0605C50.3874 43.1335 50.2188 43.1699 50 43.1699H48.8105V52.9863C48.8105 54.7728 48.2728 56.1536 47.1973 57.1289C46.1309 58.1133 44.5312 58.6055 42.3984 58.6055C41.6146 58.6055 40.7578 58.528 39.8281 58.373C38.8984 58.2272 38.0098 58.0221 37.1621 57.7578C36.7246 57.6211 36.5059 57.3066 36.5059 56.8145C36.5059 56.5957 36.5651 56.2767 36.6836 55.8574C36.8203 55.429 36.9707 55.1191 37.1348 54.9277C37.3079 54.7363 37.5085 54.6406 37.7363 54.6406C37.8548 54.6406 37.9642 54.6589 38.0645 54.6953C39.8053 55.2331 41.2044 55.502 42.2617 55.502C43.3646 55.502 44.1621 55.2695 44.6543 54.8047C45.1465 54.349 45.3926 53.6517 45.3926 52.7129V51.3184C44.9277 51.8197 44.39 52.207 43.7793 52.4805C43.1686 52.7539 42.5078 52.8906 41.7969 52.8906C40.6211 52.8906 39.5866 52.6172 38.6934 52.0703C37.8001 51.5143 37.112 50.7533 36.6289 49.7871C36.1458 48.8118 35.9043 47.709 35.9043 46.4785C35.9043 45.248 36.1458 44.1497 36.6289 43.1836C37.112 42.2083 37.8001 41.4473 38.6934 40.9004C39.5866 40.3444 40.6211 40.0664 41.7969 40.0664ZM42.3438 43.1699C41.4961 43.1699 40.8216 43.4616 40.3203 44.0449C39.819 44.6191 39.5684 45.4303 39.5684 46.4785C39.5684 47.5267 39.819 48.3424 40.3203 48.9258C40.8216 49.5 41.4961 49.7871 42.3438 49.7871C42.9271 49.7871 43.4557 49.6641 43.9297 49.418C44.4128 49.1628 44.791 48.7891 45.0645 48.2969C45.347 47.7956 45.4883 47.1895 45.4883 46.4785C45.4883 45.7676 45.347 45.166 45.0645 44.6738C44.791 44.1725 44.4128 43.7988 43.9297 43.5527C43.4557 43.2975 42.9271 43.1699 42.3438 43.1699ZM60.8008 40.3672C61.1107 40.3672 61.3294 40.4355 61.457 40.5723C61.5938 40.6999 61.6621 40.9186 61.6621 41.2285V50.1973H65.5039C65.7227 50.1973 65.8913 50.2383 66.0098 50.3203C66.1283 50.3932 66.2148 50.5299 66.2695 50.7305C66.3333 50.931 66.3652 51.2227 66.3652 51.6055C66.3652 51.9883 66.3333 52.2799 66.2695 52.4805C66.2148 52.681 66.1283 52.8177 66.0098 52.8906C65.8913 52.9635 65.7227 53 65.5039 53H54.5117C54.293 53 54.1243 52.9635 54.0059 52.8906C53.8874 52.8177 53.7962 52.681 53.7324 52.4805C53.6777 52.2799 53.6504 51.9883 53.6504 51.6055C53.6504 51.2227 53.6777 50.931 53.7324 50.7305C53.7962 50.5299 53.8874 50.3932 54.0059 50.3203C54.1243 50.2383 54.293 50.1973 54.5117 50.1973H58.2441V43.1699H55.332C55.1133 43.1699 54.9447 43.1335 54.8262 43.0605C54.7077 42.9876 54.6165 42.8509 54.5527 42.6504C54.498 42.4499 54.4707 42.1582 54.4707 41.7754C54.4707 41.3926 54.498 41.1009 54.5527 40.9004C54.6165 40.6999 54.7077 40.5632 54.8262 40.4902C54.9447 40.4082 55.1133 40.3672 55.332 40.3672H60.8008ZM59.9121 34.3652C60.5592 34.3652 61.0104 34.4336 61.2656 34.5703C61.5299 34.6979 61.6621 34.9167 61.6621 35.2266V37.4688C61.6621 37.7786 61.5391 38.002 61.293 38.1387C61.056 38.2663 60.6185 38.3301 59.9805 38.3301C59.3424 38.3301 58.8913 38.2663 58.627 38.1387C58.3717 38.002 58.2441 37.7786 58.2441 37.4688V35.2266C58.2441 34.9076 58.3626 34.6842 58.5996 34.5566C58.8366 34.429 59.2741 34.3652 59.9121 34.3652ZM74.7871 36.4707C75.2155 36.4707 75.5436 36.5026 75.7715 36.5664C76.0085 36.6211 76.1725 36.7077 76.2637 36.8262C76.3548 36.9447 76.4004 37.1133 76.4004 37.332V41.1875H81.4727C81.7917 41.1875 82.015 41.2923 82.1426 41.502C82.2702 41.7116 82.334 42.099 82.334 42.6641C82.334 43.2292 82.2702 43.6165 82.1426 43.8262C82.015 44.0267 81.7917 44.127 81.4727 44.127H76.4004V47.9277C76.4004 49.4408 76.9883 50.1973 78.1641 50.1973C78.5833 50.1973 79.071 50.1061 79.627 49.9238C80.1921 49.7324 80.8483 49.4681 81.5957 49.1309C81.7962 49.0488 81.9557 49.0078 82.0742 49.0078C82.2656 49.0078 82.4434 49.0898 82.6074 49.2539C82.7715 49.4089 82.9264 49.6686 83.0723 50.0332C83.2363 50.4434 83.3184 50.776 83.3184 51.0312C83.3184 51.2318 83.2682 51.4004 83.168 51.5371C83.0768 51.6647 82.9355 51.7786 82.7441 51.8789C80.8665 52.8268 79.2396 53.3008 77.8633 53.3008C76.2773 53.3008 75.0651 52.8587 74.2266 51.9746C73.3971 51.0905 72.9824 49.8008 72.9824 48.1055V44.127H70.3438C70.0247 44.127 69.8014 44.0267 69.6738 43.8262C69.5462 43.6165 69.4824 43.2292 69.4824 42.6641C69.4824 42.099 69.5462 41.7116 69.6738 41.502C69.8014 41.2923 70.0247 41.1875 70.3438 41.1875H72.9824V37.332C72.9824 37.0221 73.1191 36.8034 73.3926 36.6758C73.6751 36.5391 74.14 36.4707 74.7871 36.4707ZM93.1895 40.0664C95.1947 40.0664 96.6439 40.4993 97.5371 41.3652C98.4303 42.2311 98.877 43.4707 98.877 45.084V49.0352C98.877 49.3997 98.9544 49.6868 99.1094 49.8965C99.2643 50.097 99.4876 50.1973 99.7793 50.1973H100.203C100.422 50.1973 100.59 50.2383 100.709 50.3203C100.827 50.3932 100.914 50.5299 100.969 50.7305C101.033 50.931 101.064 51.2227 101.064 51.6055C101.064 51.9883 101.033 52.2799 100.969 52.4805C100.914 52.681 100.827 52.8177 100.709 52.8906C100.59 52.9635 100.422 53 100.203 53H98.6719C98.1068 53 97.6055 52.8861 97.168 52.6582C96.7396 52.4212 96.4115 52.0521 96.1836 51.5508C95.4635 52.1068 94.7025 52.5397 93.9004 52.8496C93.0983 53.1504 92.2734 53.3008 91.4258 53.3008C90.3958 53.3008 89.5072 53.1276 88.7598 52.7812C88.0124 52.4258 87.4382 51.9245 87.0371 51.2773C86.6452 50.6211 86.4492 49.8509 86.4492 48.9668C86.4492 47.6908 86.9004 46.7018 87.8027 46C88.7051 45.2982 89.9674 44.9473 91.5898 44.9473C92.8021 44.9473 94.0918 45.084 95.459 45.3574V44.9609C95.459 44.3503 95.2676 43.8991 94.8848 43.6074C94.502 43.3158 93.8275 43.1699 92.8613 43.1699C92.3236 43.1699 91.722 43.2383 91.0566 43.375C90.4004 43.5026 89.7487 43.6758 89.1016 43.8945C88.9466 43.9401 88.8145 43.9629 88.7051 43.9629C88.4772 43.9629 88.2721 43.8809 88.0898 43.7168C87.9167 43.5436 87.7572 43.2565 87.6113 42.8555C87.4746 42.4544 87.4062 42.1263 87.4062 41.8711C87.4062 41.4062 87.6159 41.0964 88.0352 40.9414C88.8464 40.6497 89.7077 40.431 90.6191 40.2852C91.5306 40.1393 92.3874 40.0664 93.1895 40.0664ZM91.9316 47.7637C91.2936 47.7637 90.806 47.8776 90.4688 48.1055C90.1406 48.3333 89.9766 48.666 89.9766 49.1035C89.9766 49.5319 90.1361 49.86 90.4551 50.0879C90.7832 50.3066 91.2526 50.416 91.8633 50.416C92.4922 50.416 93.112 50.293 93.7227 50.0469C94.3424 49.7917 94.9212 49.4453 95.459 49.0078V48.1328C94.2559 47.8867 93.0801 47.7637 91.9316 47.7637ZM111.031 35.0625C111.341 35.0625 111.56 35.1309 111.688 35.2676C111.824 35.3952 111.893 35.6139 111.893 35.9238V50.1973H115.734C115.953 50.1973 116.122 50.2383 116.24 50.3203C116.359 50.3932 116.445 50.5299 116.5 50.7305C116.564 50.931 116.596 51.2227 116.596 51.6055C116.596 51.9883 116.564 52.2799 116.5 52.4805C116.445 52.681 116.359 52.8177 116.24 52.8906C116.122 52.9635 115.953 53 115.734 53H104.742C104.523 53 104.355 52.9635 104.236 52.8906C104.118 52.8177 104.027 52.681 103.963 52.4805C103.908 52.2799 103.881 51.9883 103.881 51.6055C103.881 51.2227 103.908 50.931 103.963 50.7305C104.027 50.5299 104.118 50.3932 104.236 50.3203C104.355 50.2383 104.523 50.1973 104.742 50.1973H108.475V37.8652H105.289C105.07 37.8652 104.902 37.8288 104.783 37.7559C104.665 37.6829 104.574 37.5462 104.51 37.3457C104.455 37.1452 104.428 36.8535 104.428 36.4707C104.428 36.0879 104.455 35.7962 104.51 35.5957C104.574 35.3952 104.665 35.2585 104.783 35.1855C104.902 35.1035 105.07 35.0625 105.289 35.0625H111.031Z" fill="white"/>
</svg>
